<mxfile host="app.diagrams.net" modified="2023-10-11T09:49:54.587Z" agent="Mozilla/5.0 (Windows NT 10.0; Win64; x64) AppleWebKit/537.36 (KHTML, like Gecko) Chrome/117.0.0.0 Safari/537.36 Edg/117.0.2045.60" etag="hKrgdwk5qfdOyeWt6aSL" version="22.0.4" type="github">
  <diagram name="공부 아키텍처" id="NBDikGrcJGQC2LffArY_">
    <mxGraphModel dx="2487" dy="1530" grid="1" gridSize="10" guides="1" tooltips="1" connect="1" arrows="1" fold="1" page="1" pageScale="1" pageWidth="827" pageHeight="1169" math="0" shadow="0">
      <root>
        <mxCell id="0" />
        <mxCell id="1" parent="0" />
        <mxCell id="gBtBrwpLRqSXVQZPGn9C-1" value="&lt;b&gt;협업도구&lt;/b&gt;" style="rounded=0;whiteSpace=wrap;html=1;fillColor=none;align=center;labelPosition=center;verticalLabelPosition=top;verticalAlign=bottom;spacing=2;noLabel=0;fontSize=15;strokeColor=#007FFF;" parent="1" vertex="1">
          <mxGeometry x="93" y="210" width="170" height="380" as="geometry" />
        </mxCell>
        <mxCell id="C4OU6_arEyTyz7Xn0x7d-28" value="&lt;h4&gt;&lt;span style=&quot;font-size: 25px;&quot;&gt;로컬 개발&lt;/span&gt;&lt;/h4&gt;" style="rounded=0;whiteSpace=wrap;html=1;fillColor=none;align=center;labelPosition=center;verticalLabelPosition=top;verticalAlign=bottom;spacing=2;noLabel=0;fontSize=20;" parent="1" vertex="1">
          <mxGeometry x="586.39" y="1050" width="995.61" height="330" as="geometry" />
        </mxCell>
        <mxCell id="C4OU6_arEyTyz7Xn0x7d-1" value="&lt;p&gt;&lt;font style=&quot;font-size: 25px;&quot;&gt;Public&lt;/font&gt;&lt;/p&gt;" style="rounded=0;whiteSpace=wrap;html=1;fillColor=none;align=center;labelPosition=center;verticalLabelPosition=top;verticalAlign=bottom;spacing=2;noLabel=0;fontSize=20;" parent="1" vertex="1">
          <mxGeometry x="52" y="100" width="470" height="1280" as="geometry" />
        </mxCell>
        <mxCell id="C4OU6_arEyTyz7Xn0x7d-2" value="&lt;h4&gt;&lt;font style=&quot;font-size: 25px;&quot;&gt;&amp;nbsp; &amp;nbsp; &amp;nbsp;클라우드&lt;/font&gt;&lt;/h4&gt;" style="rounded=0;whiteSpace=wrap;html=1;fillColor=none;align=center;labelPosition=center;verticalLabelPosition=top;verticalAlign=bottom;spacing=2;noLabel=0;fontSize=20;" parent="1" vertex="1">
          <mxGeometry x="582" y="100" width="1000" height="870" as="geometry" />
        </mxCell>
        <mxCell id="C4OU6_arEyTyz7Xn0x7d-3" value="" style="rounded=0;whiteSpace=wrap;html=1;fillColor=none;align=center;labelPosition=center;verticalLabelPosition=top;verticalAlign=bottom;spacing=2;noLabel=0;fontSize=15;strokeColor=#9933FF;" parent="1" vertex="1">
          <mxGeometry x="602" y="145" width="950" height="805" as="geometry" />
        </mxCell>
        <mxCell id="C4OU6_arEyTyz7Xn0x7d-4" value="&lt;b&gt;메세징&lt;/b&gt;" style="rounded=0;whiteSpace=wrap;html=1;fillColor=none;align=center;labelPosition=center;verticalLabelPosition=top;verticalAlign=bottom;spacing=2;noLabel=0;fontSize=15;strokeColor=#007FFF;" parent="1" vertex="1">
          <mxGeometry x="1331.26" y="210" width="180.74" height="108.75" as="geometry" />
        </mxCell>
        <mxCell id="C4OU6_arEyTyz7Xn0x7d-5" value="&lt;b&gt;개발언어&lt;/b&gt;" style="rounded=0;whiteSpace=wrap;html=1;fillColor=none;align=center;labelPosition=center;verticalLabelPosition=top;verticalAlign=bottom;spacing=2;noLabel=0;fontSize=15;strokeColor=#007FFF;" parent="1" vertex="1">
          <mxGeometry x="872" y="1089.73" width="640" height="110.27" as="geometry" />
        </mxCell>
        <mxCell id="C4OU6_arEyTyz7Xn0x7d-6" value="&lt;b&gt;개발도구&lt;/b&gt;" style="rounded=0;whiteSpace=wrap;html=1;fillColor=none;align=center;labelPosition=center;verticalLabelPosition=top;verticalAlign=bottom;spacing=2;noLabel=0;fontSize=15;strokeColor=#007FFF;" parent="1" vertex="1">
          <mxGeometry x="682" y="1240" width="830" height="110" as="geometry" />
        </mxCell>
        <mxCell id="C4OU6_arEyTyz7Xn0x7d-7" value="&lt;b&gt;DB&lt;/b&gt;" style="rounded=0;whiteSpace=wrap;html=1;fillColor=none;align=center;labelPosition=center;verticalLabelPosition=top;verticalAlign=bottom;spacing=2;noLabel=0;fontSize=15;strokeColor=#007FFF;" parent="1" vertex="1">
          <mxGeometry x="352" y="760" width="500" height="150" as="geometry" />
        </mxCell>
        <mxCell id="C4OU6_arEyTyz7Xn0x7d-8" value="&lt;b&gt;MSA&lt;/b&gt;" style="rounded=0;whiteSpace=wrap;html=1;fillColor=none;align=center;labelPosition=center;verticalLabelPosition=top;verticalAlign=bottom;spacing=2;noLabel=0;fontSize=15;strokeColor=#007FFF;" parent="1" vertex="1">
          <mxGeometry x="856" y="210" width="190" height="500" as="geometry" />
        </mxCell>
        <mxCell id="C4OU6_arEyTyz7Xn0x7d-9" value="&lt;b&gt;Telemetry&lt;/b&gt;" style="rounded=0;whiteSpace=wrap;html=1;fillColor=none;align=center;labelPosition=center;verticalLabelPosition=top;verticalAlign=bottom;spacing=2;noLabel=0;fontSize=15;strokeColor=#007FFF;" parent="1" vertex="1">
          <mxGeometry x="872" y="759.89" width="610" height="150.11" as="geometry" />
        </mxCell>
        <mxCell id="C4OU6_arEyTyz7Xn0x7d-10" value="&lt;font style=&quot;font-size: 18px;&quot;&gt;&lt;b&gt;CICD&lt;/b&gt;&lt;/font&gt;" style="rounded=0;whiteSpace=wrap;html=1;fillColor=none;align=center;labelPosition=center;verticalLabelPosition=top;verticalAlign=bottom;spacing=2;noLabel=0;fontSize=15;strokeColor=#007FFF;" parent="1" vertex="1">
          <mxGeometry x="310" y="210" width="512" height="270" as="geometry" />
        </mxCell>
        <mxCell id="C4OU6_arEyTyz7Xn0x7d-11" value="소스저장소(GitHub)" style="dashed=0;outlineConnect=0;html=1;align=center;labelPosition=center;verticalLabelPosition=bottom;verticalAlign=top;shape=mxgraph.weblogos.github" parent="1" vertex="1">
          <mxGeometry x="368.5" y="240.36" width="75" height="75" as="geometry" />
        </mxCell>
        <mxCell id="C4OU6_arEyTyz7Xn0x7d-13" value="컨테이너 배포&#xa;(ArgoCD)" style="shape=image;verticalLabelPosition=bottom;labelBackgroundColor=default;verticalAlign=top;aspect=fixed;imageAspect=0;image=https://argocd-image-updater.readthedocs.io/en/stable/assets/logo.png;" parent="1" vertex="1">
          <mxGeometry x="679.3499999999999" y="356.5" width="78.5" height="78.5" as="geometry" />
        </mxCell>
        <mxCell id="C4OU6_arEyTyz7Xn0x7d-14" value="빌드배포(GitHub Action)" style="shape=image;verticalLabelPosition=bottom;labelBackgroundColor=default;verticalAlign=top;aspect=fixed;imageAspect=0;image=https://seeklogo.com/images/G/github-actions-logo-031704BDC6-seeklogo.com.png;" parent="1" vertex="1">
          <mxGeometry x="366.25" y="358.75" width="79.5" height="79.5" as="geometry" />
        </mxCell>
        <mxCell id="C4OU6_arEyTyz7Xn0x7d-17" value="알림(Slack)" style="shape=image;html=1;verticalAlign=top;verticalLabelPosition=bottom;labelBackgroundColor=#ffffff;imageAspect=0;aspect=fixed;image=https://cdn2.iconfinder.com/data/icons/social-media-2285/512/1_Slack_colored_svg-128.png" parent="1" vertex="1">
          <mxGeometry x="148" y="490.5" width="60" height="60" as="geometry" />
        </mxCell>
        <mxCell id="C4OU6_arEyTyz7Xn0x7d-18" value="&lt;font style=&quot;font-size: 18px;&quot;&gt;&lt;b&gt;Kebernetes&lt;/b&gt;&lt;/font&gt;" style="editableCssRules=.*;html=1;shape=image;verticalLabelPosition=bottom;labelBackgroundColor=#ffffff;verticalAlign=top;aspect=fixed;imageAspect=0;image=data:image/svg+xml,PHN2ZyB4bWxucz0iaHR0cDovL3d3dy53My5vcmcvMjAwMC9zdmciIHhtbG5zOnY9Imh0dHBzOi8vdmVjdGEuaW8vbmFubyIgd2lkdGg9IjcwMi44NDYzMTM0NzY1NjI1IiBoZWlnaHQ9IjY4MS45NjcxMDIwNTA3ODEyIiB2aWV3Qm94PSIxMC4wMDEwMjYxNTM1NjQ0NTMgMTAuMDAwOTMzNjQ3MTU1NzYyIDcwMi44NDYzMTM0NzY1NjI1IDY4MS45NjcxMDIwNTA3ODEyIj4mI3hhOwk8c3R5bGUgdHlwZT0idGV4dC9jc3MiPiYjeGE7CS5zdDB7ZmlsbDojMzI2Y2U1O30mI3hhOwkuc3Qxe2ZpbGw6I2ZmZjt9JiN4YTsJPC9zdHlsZT4mI3hhOwk8cGF0aCBjbGFzcz0ic3QwIiBkPSJNMzU4Ljk4NyAxMC4wNmMtNi4yMTMuMzEzLTEyLjMwMSAxLjg1NC0xNy45MDYgNC41MzFMOTYuNzM3IDEzMS4zNDJjLTEyLjgxMSA2LjExOC0yMi4xMTYgMTcuNjg5LTI1LjI4MSAzMS40MzhsLTYwLjI4MSAyNjIuMjVjLTIuODEyIDEyLjIwNy0uNTI0IDI1LjAyNCA2LjM0NCAzNS41MzFhNDYuMzUgNDYuMzUgMCAwIDAgMi42NTYgMy42ODhsMTY5LjEyNSAyMTAuMjgxYzguODY4IDExLjAyMiAyMi4zMTMgMTcuNDQgMzYuNTMxIDE3LjQzOGwyNzEuMjE5LS4wNjJjMTQuMjEyLjAxIDI3LjY1Ny02LjM5NiAzNi41MzEtMTcuNDA2bDE2OS4wNjMtMjEwLjMxM2M4Ljg3My0xMS4wMjggMTIuMTk3LTI1LjQ2NCA5LjAzMS0zOS4yMTlsLTYwLjM3NS0yNjIuMjVjLTMuMTY1LTEzLjc0OC0xMi40Ny0yNS4zMTktMjUuMjgxLTMxLjQzN0wzODEuNjQzIDE0LjU5MmMtNy4wNS0zLjM2OC0xNC44NDEtNC45MjYtMjIuNjU2LTQuNTMxeiIvPiYjeGE7CTxwYXRoIGNsYXNzPSJzdDEgc3QyIiBkPSJNMzYxLjQwOCA5OS4zMDhjLTguMDc3LjAwMS0xNC42MjYgNy4yNzYtMTQuNjI1IDE2LjI1IDAgLjEzOC4wMjguMjY5LjAzMS40MDYtLjAxMiAxLjIxOS0uMDcxIDIuNjg4LS4wMzEgMy43NS4xOTMgNS4xNzYgMS4zMjEgOS4xMzcgMiAxMy45MDYgMS4yMyAxMC4yMDcgMi4yNjEgMTguNjY3IDEuNjI1IDI2LjUzMS0uNjE5IDIuOTY1LTIuODAzIDUuNjc3LTQuNzUgNy41NjNsLS4zNDQgNi4xODhjLTguNzc3LjcyNy0xNy42MTIgMi4wNTktMjYuNDM3IDQuMDYzLTM3Ljk3NSA4LjYyMi03MC42NyAyOC4xODMtOTUuNTYyIDU0LjU5NC0xLjYxNS0xLjEwMi00LjQ0MS0zLjEyOS01LjI4MS0zLjc1LTIuNjExLjM1My01LjI1IDEuMTU4LTguNjg3LS44NDQtNi41NDUtNC40MDYtMTIuNTA2LTEwLjQ4Ny0xOS43MTktMTcuODEyLTMuMzA1LTMuNTA0LTUuNjk4LTYuODQxLTkuNjI1LTEwLjIxOS0uODkyLS43NjctMi4yNTMtMS44MDUtMy4yNS0yLjU5NC0zLjA3LTIuNDQ4LTYuNjkxLTMuNzI0LTEwLjE4Ny0zLjg0NC00LjQ5Ni0uMTU0LTguODI0IDEuNjA0LTExLjY1NiA1LjE1Ni01LjAzNSA2LjMxNS0zLjQyMyAxNS45NjggMy41OTQgMjEuNTYzLjA3MS4wNTcuMTQ3LjEwMS4yMTkuMTU2Ljk2NC43ODIgMi4xNDUgMS43ODMgMy4wMzEgMi40MzggNC4xNjcgMy4wNzcgNy45NzMgNC42NTEgMTIuMTI1IDcuMDk0IDguNzQ3IDUuNDAyIDE1Ljk5OCA5Ljg4MSAyMS43NSAxNS4yODEgMi4yNDYgMi4zOTQgMi42MzkgNi42MTMgMi45MzggOC40MzhsNC42ODggNC4xODhjLTI1LjA5MyAzNy43NjQtMzYuNzA3IDg0LjQwOS0yOS44NDQgMTMxLjkzOGwtNi4xMjUgMS43ODFjLTEuNjE0IDIuMDg1LTMuODk1IDUuMzY1LTYuMjgxIDYuMzQ0LTcuNTI1IDIuMzctMTUuOTk0IDMuMjQxLTI2LjIxOSA0LjMxMy00LjguMzk5LTguOTQyLjE2MS0xNC4wMzEgMS4xMjUtMS4xMi4yMTItMi42ODEuNjE5LTMuOTA2LjkwNi0uMDQzLjAwOS0uMDgyLjAyMi0uMTI1LjAzMS0uMDY3LjAxNS0uMTU1LjA0OC0uMjE5LjA2My04LjYyIDIuMDgzLTE0LjE1OCAxMC4wMDYtMTIuMzc1IDE3LjgxM3MxMC4yMDMgMTIuNTU3IDE4Ljg3NSAxMC42ODhjLjA2My0uMDE0LjE1NC0uMDE3LjIxOS0uMDMxLjA5OC0uMDIyLjE4NC0uMDcuMjgxLS4wOTQgMS4yMDktLjI2NSAyLjcyNC0uNTYxIDMuNzgxLS44NDQgNS4wMDMtMS4zNCA4LjYyNy0zLjMwOCAxMy4xMjUtNS4wMzEgOS42NzctMy40NzEgMTcuNjkyLTYuMzcgMjUuNS03LjUgMy4yNjEtLjI1NSA2LjY5NyAyLjAxMiA4LjQwNiAyLjk2OWw2LjM3NS0xLjA5NGMxNC42NyA0NS40ODMgNDUuNDE0IDgyLjI0NSA4NC4zNDQgMTA1LjMxMmwtMi42NTYgNi4zNzVjLjk1NyAyLjQ3NSAyLjAxMyA1LjgyNSAxLjMgOC4yNjktMi44MzkgNy4zNjEtNy43MDEgMTUuMTMxLTEzLjIzOCAyMy43OTMtMi42ODEgNC4wMDItNS40MjUgNy4xMDgtNy44NDQgMTEuNjg4LS41NzkgMS4wOTYtMS4zMTYgMi43NzktMS44NzUgMy45MzgtMy43NTkgOC4wNDItMS4wMDIgMTcuMzA1IDYuMjE5IDIwLjc4MSA3LjI2NiAzLjQ5OCAxNi4yODQtLjE5MSAyMC4xODctOC4yNS4wMDYtLjAxMS4wMjYtLjAyLjAzMS0uMDMxcy0uMDA0LS4wMjMgMC0uMDMxYy41NTYtMS4xNDMgMS4zNDQtMi42NDQgMS44MTMtMy43MTkgMi4wNzItNC43NDcgMi43NjItOC44MTUgNC4yMTktMTMuNDA2IDMuODctOS43MiA1Ljk5Ni0xOS45MTkgMTEuMzIzLTI2LjI3NCAxLjQ1OS0xLjc0IDMuODM3LTIuNDA5IDYuMzAyLTMuMDdsMy4zMTMtNmMzMy45MzggMTMuMDI3IDcxLjkyNyAxNi41MjIgMTA5Ljg3NSA3LjkwNmExODkuNzcgMTg5Ljc3IDAgMCAwIDI1LjA5NC03LjU2MmwzLjEyNSA1LjYyNWMyLjUwNi44MTUgNS4yNCAxLjIzNiA3LjQ2OSA0LjUzMSAzLjk4NSA2LjgwOSA2LjcxMSAxNC44NjQgMTAuMDMxIDI0LjU5NCAxLjQ1NyA0LjU5MSAyLjE3OCA4LjY1OSA0LjI1IDEzLjQwNi40NzIgMS4wODIgMS4yNTYgMi42MDUgMS44MTMgMy43NSAzLjg5NSA4LjA4NSAxMi45NDIgMTEuNzg3IDIwLjIxOSA4LjI4MSA3LjIxOS0zLjQ3OCA5Ljk4LTEyLjc0IDYuMjE5LTIwLjc4MWwtMS45MDYtMy45MzdjLTIuNDE5LTQuNTgtNS4xNjMtNy42NTQtNy44NDQtMTEuNjU2LTUuNTM3LTguNjYyLTEwLjEzLTE1Ljg1OC0xMi45NjktMjMuMjE5LTEuMTg3LTMuNzk3LjItNi4xNTggMS4xMjUtOC42MjUtLjU1NC0uNjM1LTEuNzM5LTQuMjItMi40MzctNS45MDYgNDAuNDU3LTIzLjg4OCA3MC4yOTktNjIuMDIxIDg0LjMxMy0xMDYuMDYyIDEuODkyLjI5NyA1LjE4Mi44NzkgNi4yNSAxLjA5NCAyLjItMS40NTEgNC4yMjItMy4zNDQgOC4xODgtMy4wMzEgNy44MDggMS4xMjkgMTUuODIzIDQuMDMgMjUuNSA3LjUgNC40OTggMS43MjMgOC4xMjIgMy43MjMgMTMuMTI1IDUuMDYzIDEuMDU3LjI4MyAyLjU3Mi41NDcgMy43ODEuODEzLjA5Ny4wMjQuMTgzLjA3MS4yODEuMDk0LjA2NS4wMTUuMTU2LjAxNy4yMTkuMDMxIDguNjcyIDEuODY3IDE3LjA5NC0yLjg3OSAxOC44NzUtMTAuNjg3cy0zLjc1NC0xNS43MzItMTIuMzc1LTE3LjgxMmMtMS4yNTQtLjI4NS0zLjAzMi0uNzY5LTQuMjUtMS01LjA4OS0uOTY0LTkuMjMxLS43MjYtMTQuMDMxLTEuMTI1LTEwLjIyNS0xLjA3MS0xOC42OTMtMS45NDMtMjYuMjE5LTQuMzEyLTMuMDY4LTEuMTktNS4yNTEtNC44NDEtNi4zMTMtNi4zNDRsLTUuOTA2LTEuNzE5YzMuMDYyLTIyLjE1NCAyLjIzNy00NS4yMTEtMy4wNjItNjguMjgxLTUuMzQ4LTIzLjI4NS0xNC44LTQ0LjU4MS0yNy40MDYtNjMuMzQ0bDUuMTg4LTQuNjU2Yy4yMzctMi42MjQuMDMzLTUuMzc2IDIuNzUtOC4yODEgNS43NTEtNS40MDEgMTMuMDAzLTkuODc5IDIxLjc1LTE1LjI4MSA0LjE1Mi0yLjQ0MyA3Ljk5LTQuMDE3IDEyLjE1Ni03LjA5NC45NDItLjY5NiAyLjIyOS0xLjc5OCAzLjIxOS0yLjU5NCA3LjAxNS01LjU5NiA4LjYzMS0xNS4yNDggMy41OTQtMjEuNTYycy0xNC43OTctNi45MDktMjEuODEyLTEuMzEyYy0uOTk5Ljc5MS0yLjM1NCAxLjgyMy0zLjI1IDIuNTk0LTMuOTI3IDMuMzc4LTYuMzUxIDYuNzE0LTkuNjU2IDEwLjIxOS03LjIxMiA3LjMyNi0xMy4xNzQgMTMuNDM4LTE5LjcxOSAxNy44NDQtMi44MzYgMS42NTEtNi45OSAxLjA4LTguODc1Ljk2OWwtNS41NjIgMy45NjljLTMxLjcxOS0zMy4yNjEtNzQuOTA1LTU0LjUyNS0xMjEuNDA2LTU4LjY1NmwtLjM0NC02LjUzMWMtMS45MDQtMS44MjItNC4yMDMtMy4zNzctNC43ODEtNy4zMTItLjYzNi03Ljg2NC40MjYtMTYuMzI1IDEuNjU2LTI2LjUzMS42NzktNC43NjkgMS44MDctOC43MyAyLTEzLjkwNi4wNDQtMS4xNzctLjAyNi0yLjg4NC0uMDMxLTQuMTU2LS4wMDEtOC45NzQtNi41NDgtMTYuMjUxLTE0LjYyNS0xNi4yNXptLTE4LjMxMiAxMTMuNDM4bC00LjM0NCA3Ni43MTktLjMxMi4xNTZjLS4yOTEgNi44NjMtNS45NCAxMi4zNDQtMTIuODc1IDEyLjM0NGExMi44MiAxMi44MiAwIDAgMS03LjU5NC0yLjQ2OWwtLjEyNS4wNjMtNjIuOTA2LTQ0LjU5NGMxOS4zMzQtMTkuMDExIDQ0LjA2My0zMy4wNiA3Mi41NjItMzkuNTMxIDUuMjA2LTEuMTgyIDEwLjQxLTIuMDU5IDE1LjU5NC0yLjY4N3ptMzYuNjU2IDBjMzMuMjczIDQuMDkyIDY0LjA0NSAxOS4xNTkgODcuNjI1IDQyLjI1bC02Mi41IDQ0LjMxMy0uMjE5LS4wOTRhMTIuOTEgMTIuOTEgMCAwIDEtMTcuNjg3LTIuMzc1Yy0xLjc3MS0yLjIyMS0yLjcwMS00LjgzMi0yLjgxMi03LjQ2OWwtLjA2Mi0uMDMxek0yMzIuMTI2IDI4My42Mmw1Ny40MzcgNTEuMzc1LS4wNjIuMzEzYTEyLjg4IDEyLjg4IDAgMCAxIDEuNjI1IDE3Ljc1IDEyLjg5IDEyLjg5IDAgMCAxLTYuNjg3IDQuNDA2bC0uMDYyLjI1LTczLjYyNSAyMS4yNWMtMy43NDctMzQuMjY1IDQuMzI5LTY3LjU3NCAyMS4zNzUtOTUuMzQ0em0yNTguMTU2LjAzMWM4LjUzNCAxMy44MzMgMTQuOTk3IDI5LjI4MiAxOC44NDQgNDYuMDMxIDMuODAxIDE2LjU0OCA0Ljc1NSAzMy4wNjcgMy4xODggNDkuMDMxbC03NC0yMS4zMTItLjA2Mi0uMzEyYy02LjYyNy0xLjgxMS0xMC42OTktOC41NTItOS4xNTYtMTUuMzEyLjYzMi0yLjc3IDIuMTAyLTUuMTEzIDQuMDk0LTYuODQ0bC0uMDMxLS4xNTYgNTcuMTI1LTUxLjEyNXptLTE0MC42NTYgNTUuMzEzaDIzLjUzMWwxNC42MjUgMTguMjgxLTUuMjUgMjIuODEzLTIxLjEyNSAxMC4xNTYtMjEuMTg3LTEwLjE4Ny01LjI1LTIyLjgxMnptNzUuNDM4IDYyLjU2M2ExMi44MyAxMi44MyAwIDAgMSAyLjk2OS4yMTlsLjEyNS0uMTU2IDc2LjE1NiAxMi44NzVjLTExLjE0NiAzMS4zMTMtMzIuNDczIDU4LjQ0LTYwLjk2OSA3Ni41OTRsLTI5LjU2Mi03MS40MDYuMDk0LS4xMjVjLTIuNzE2LTYuMzEuMDAyLTEzLjcxIDYuMjUtMTYuNzE5IDEuNi0uNzcgMy4yNzEtMS4xOTcgNC45MzgtMS4yODF6bS0xMjcuOTA2LjMxM2ExMi45IDEyLjkgMCAwIDEgMTIuMzc1IDEwLjAzMSAxMi43NyAxMi43NyAwIDAgMS0uNzE5IDcuOTM4bC4yMTkuMjgxLTI5LjI1IDcwLjY4OGMtMjcuMzQ3LTE3LjU0OS00OS4xMjktNDMuODI0LTYwLjc4MS03Ni4wNjJsNzUuNS0xMi44MTIuMTI1LjE1NmMuODQ1LS4xNTUgMS43MDEtLjIzIDIuNTMxLS4yMTl6bTYzLjc4MSAzMC45NjljMi4wMjQtLjA3NCA0LjA3OS4zNDEgNi4wMzEgMS4yODEgMi41NiAxLjIzMyA0LjUzNyAzLjE3MyA1Ljc4MSA1LjVoLjI4MWwzNy4yMTkgNjcuMjVjLTQuODMgMS42MTktOS43OTYgMy4wMDMtMTQuODc1IDQuMTU2LTI4LjQ2NSA2LjQ2My01Ni44MzkgNC41MDUtODIuNTMxLTQuMjVsMzcuMTI1LTY3LjEyNWguMDYzYTEyLjkxIDEyLjkxIDAgMCAxIDEwLjkwNi02LjgxMnoiIHN0cm9rZT0ibm9uZSIgc3Ryb2tlLXdpZHRoPSIuMjUiLz4mI3hhOzwvc3ZnPg==;fontColor=default;" parent="1" vertex="1">
          <mxGeometry x="1042.6100000000001" y="120" width="63.16" height="60" as="geometry" />
        </mxCell>
        <mxCell id="C4OU6_arEyTyz7Xn0x7d-19" value="주문" style="sketch=0;html=1;dashed=0;whitespace=wrap;fillColor=#2875E2;strokeColor=#ffffff;points=[[0.005,0.63,0],[0.1,0.2,0],[0.9,0.2,0],[0.5,0,0],[0.995,0.63,0],[0.72,0.99,0],[0.5,1,0],[0.28,0.99,0]];verticalLabelPosition=bottom;align=center;verticalAlign=top;shape=mxgraph.kubernetes.icon;prIcon=pod" parent="1" vertex="1">
          <mxGeometry x="1180" y="259" width="50" height="52" as="geometry" />
        </mxCell>
        <mxCell id="C4OU6_arEyTyz7Xn0x7d-20" value="시세" style="sketch=0;html=1;dashed=0;whitespace=wrap;fillColor=#2875E2;strokeColor=#ffffff;points=[[0.005,0.63,0],[0.1,0.2,0],[0.9,0.2,0],[0.5,0,0],[0.995,0.63,0],[0.72,0.99,0],[0.5,1,0],[0.28,0.99,0]];verticalLabelPosition=bottom;align=center;verticalAlign=top;shape=mxgraph.kubernetes.icon;prIcon=pod" parent="1" vertex="1">
          <mxGeometry x="1180" y="361" width="50" height="48" as="geometry" />
        </mxCell>
        <mxCell id="C4OU6_arEyTyz7Xn0x7d-21" value="관리" style="sketch=0;html=1;dashed=0;whitespace=wrap;fillColor=#2875E2;strokeColor=#ffffff;points=[[0.005,0.63,0],[0.1,0.2,0],[0.9,0.2,0],[0.5,0,0],[0.995,0.63,0],[0.72,0.99,0],[0.5,1,0],[0.28,0.99,0]];verticalLabelPosition=bottom;align=center;verticalAlign=top;shape=mxgraph.kubernetes.icon;prIcon=pod" parent="1" vertex="1">
          <mxGeometry x="1180" y="583" width="50" height="48" as="geometry" />
        </mxCell>
        <mxCell id="C4OU6_arEyTyz7Xn0x7d-22" value="전략" style="sketch=0;html=1;dashed=0;whitespace=wrap;fillColor=#2875E2;strokeColor=#ffffff;points=[[0.005,0.63,0],[0.1,0.2,0],[0.9,0.2,0],[0.5,0,0],[0.995,0.63,0],[0.72,0.99,0],[0.5,1,0],[0.28,0.99,0]];verticalLabelPosition=bottom;align=center;verticalAlign=top;shape=mxgraph.kubernetes.icon;prIcon=pod" parent="1" vertex="1">
          <mxGeometry x="1180" y="472.25" width="50" height="48" as="geometry" />
        </mxCell>
        <mxCell id="C4OU6_arEyTyz7Xn0x7d-23" value="모니터링 UI&#xa;(Grafana)" style="shape=image;verticalLabelPosition=bottom;labelBackgroundColor=default;verticalAlign=top;aspect=fixed;imageAspect=0;image=https://seeklogo.com/images/G/grafana-logo-15BA0AFA8A-seeklogo.com.png;" parent="1" vertex="1">
          <mxGeometry x="1272" y="794.64" width="42.32" height="46" as="geometry" />
        </mxCell>
        <mxCell id="C4OU6_arEyTyz7Xn0x7d-24" value="메트릭 수집&#xa;(Prometheus)" style="shape=image;verticalLabelPosition=bottom;labelBackgroundColor=default;verticalAlign=top;aspect=fixed;imageAspect=0;image=https://seeklogo.com/images/P/prometheus-logo-8EB4639A0C-seeklogo.com.png;" parent="1" vertex="1">
          <mxGeometry x="1172" y="794.64" width="45.75" height="45.75" as="geometry" />
        </mxCell>
        <mxCell id="C4OU6_arEyTyz7Xn0x7d-25" value="어플리케이션 모니터링&#xa;(ELK)" style="shape=image;verticalLabelPosition=bottom;labelBackgroundColor=default;verticalAlign=top;aspect=fixed;imageAspect=0;image=https://logowik.com/content/uploads/images/elastic-search2066.jpg;" parent="1" vertex="1">
          <mxGeometry x="1372" y="794.64" width="66.61" height="50" as="geometry" />
        </mxCell>
        <mxCell id="C4OU6_arEyTyz7Xn0x7d-26" value="큐(Kafka)" style="shape=image;verticalLabelPosition=bottom;labelBackgroundColor=default;verticalAlign=top;aspect=fixed;imageAspect=0;image=https://seeklogo.com/images/K/kafka-logo-8E01E03CAD-seeklogo.com.png;direction=south;" parent="1" vertex="1">
          <mxGeometry x="1390.395" y="236.82500000000005" width="62.48" height="38.53" as="geometry" />
        </mxCell>
        <mxCell id="C4OU6_arEyTyz7Xn0x7d-27" value="RDB(MySQL)" style="shape=image;verticalLabelPosition=bottom;labelBackgroundColor=default;verticalAlign=top;aspect=fixed;imageAspect=0;image=https://seeklogo.com/images/M/mysql-logo-69B39F7D18-seeklogo.com.png;" parent="1" vertex="1">
          <mxGeometry x="652" y="820" width="50.85" height="50" as="geometry" />
        </mxCell>
        <mxCell id="C4OU6_arEyTyz7Xn0x7d-29" value="In-Memory DB&#xa;(Redis)" style="shape=image;verticalLabelPosition=bottom;labelBackgroundColor=default;verticalAlign=top;aspect=fixed;imageAspect=0;image=https://seeklogo.com/images/R/redis-logo-E403D4DD6A-seeklogo.com.png;direction=west;" parent="1" vertex="1">
          <mxGeometry x="764.35" y="818.8500000000001" width="56.04" height="47.82" as="geometry" />
        </mxCell>
        <mxCell id="C4OU6_arEyTyz7Xn0x7d-30" value="트레이딩 백엔드&#xa;(Python)" style="shape=image;verticalLabelPosition=bottom;labelBackgroundColor=default;verticalAlign=top;aspect=fixed;imageAspect=0;image=https://seeklogo.com/images/P/python-logo-A32636CAA3-seeklogo.com.png;" parent="1" vertex="1">
          <mxGeometry x="1166.68" y="1104" width="56.38" height="56" as="geometry" />
        </mxCell>
        <mxCell id="C4OU6_arEyTyz7Xn0x7d-31" value="프론트(Vue)" style="shape=image;verticalLabelPosition=bottom;labelBackgroundColor=default;verticalAlign=top;aspect=fixed;imageAspect=0;image=https://seeklogo.com/images/V/vuejs-logo-17D586B587-seeklogo.com.png;" parent="1" vertex="1">
          <mxGeometry x="932" y="1110" width="57.91" height="50" as="geometry" />
        </mxCell>
        <mxCell id="C4OU6_arEyTyz7Xn0x7d-32" value="관리 백엔드&#xa;(Spring Boot)" style="shape=image;verticalLabelPosition=bottom;labelBackgroundColor=default;verticalAlign=top;aspect=fixed;imageAspect=0;image=https://seeklogo.com/images/S/spring-logo-9A2BC78AAF-seeklogo.com.png;" parent="1" vertex="1">
          <mxGeometry x="1382" y="1099.75" width="64.5" height="64.5" as="geometry" />
        </mxCell>
        <mxCell id="C4OU6_arEyTyz7Xn0x7d-33" value="개발IDE&#xa;(VS CODE)" style="shape=image;verticalLabelPosition=bottom;labelBackgroundColor=default;verticalAlign=top;aspect=fixed;imageAspect=0;image=https://seeklogo.com/images/V/visual-studio-code-logo-284BC24C39-seeklogo.com.png;" parent="1" vertex="1">
          <mxGeometry x="929.71" y="1250" width="60.2" height="60" as="geometry" />
        </mxCell>
        <mxCell id="C4OU6_arEyTyz7Xn0x7d-34" value="Git GUI(GitKeaken)" style="shape=image;verticalLabelPosition=bottom;labelBackgroundColor=default;verticalAlign=top;aspect=fixed;imageAspect=0;image=https://seeklogo.com/images/G/gitkraken-logo-DE5B8A50E5-seeklogo.com.png;" parent="1" vertex="1">
          <mxGeometry x="1382" y="1266" width="66.41" height="58" as="geometry" />
        </mxCell>
        <mxCell id="C4OU6_arEyTyz7Xn0x7d-35" value="빌드도구(Gradle)" style="shape=image;verticalLabelPosition=bottom;labelBackgroundColor=default;verticalAlign=top;aspect=fixed;imageAspect=0;image=https://seeklogo.com/images/G/gradle-logo-AFA2BBCB65-seeklogo.com.png;" parent="1" vertex="1">
          <mxGeometry x="1153.82" y="1254" width="76.36" height="56" as="geometry" />
        </mxCell>
        <mxCell id="C4OU6_arEyTyz7Xn0x7d-36" value="&lt;b&gt;서비스&lt;/b&gt;" style="rounded=0;whiteSpace=wrap;html=1;fillColor=none;align=center;labelPosition=center;verticalLabelPosition=top;verticalAlign=bottom;spacing=2;noLabel=0;fontSize=15;strokeColor=#007FFF;" parent="1" vertex="1">
          <mxGeometry x="1109" y="210" width="190" height="500" as="geometry" />
        </mxCell>
        <mxCell id="C4OU6_arEyTyz7Xn0x7d-37" value="API Gateway&#xa;(Speing Cloud Gateway+Eureka)" style="shape=image;verticalLabelPosition=bottom;labelBackgroundColor=default;verticalAlign=top;aspect=fixed;imageAspect=0;image=https://seeklogo.com/images/S/spring-logo-9A2BC78AAF-seeklogo.com.png;" parent="1" vertex="1">
          <mxGeometry x="923.75" y="255.5" width="54.5" height="54.5" as="geometry" />
        </mxCell>
        <mxCell id="C4OU6_arEyTyz7Xn0x7d-38" value="서비스 메쉬&#xa;(Istio)" style="shape=image;verticalLabelPosition=bottom;labelBackgroundColor=default;verticalAlign=top;aspect=fixed;imageAspect=0;image=https://istio.io/v1.12/img/istio-whitelogo-bluebackground-unframed.svg;" parent="1" vertex="1">
          <mxGeometry x="927.66" y="399.5" width="46.67" height="70" as="geometry" />
        </mxCell>
        <mxCell id="C4OU6_arEyTyz7Xn0x7d-39" value="API 명세&#xa;(Swagger)" style="shape=image;verticalLabelPosition=bottom;labelBackgroundColor=default;verticalAlign=top;aspect=fixed;imageAspect=0;image=https://seeklogo.com/images/S/swagger-logo-A49F73BAF4-seeklogo.com.png;" parent="1" vertex="1">
          <mxGeometry x="920.89" y="551.5" width="70.23" height="70" as="geometry" />
        </mxCell>
        <mxCell id="C4OU6_arEyTyz7Xn0x7d-40" value="ERD(DBDiagram)" style="shape=image;verticalLabelPosition=bottom;labelBackgroundColor=default;verticalAlign=top;aspect=fixed;imageAspect=0;image=https://community.dbdiagram.io/uploads/default/original/1X/e74cdeee58b4327b87f9eac37493e349dce88050.png;" parent="1" vertex="1">
          <mxGeometry x="412" y="816.88" width="49.72" height="49.79" as="geometry" />
        </mxCell>
        <mxCell id="C4OU6_arEyTyz7Xn0x7d-41" value="DB 관리툴&#xa;(DBeaver)" style="shape=image;verticalLabelPosition=bottom;labelBackgroundColor=default;verticalAlign=top;aspect=fixed;imageAspect=0;image=https://upload.wikimedia.org/wikipedia/commons/thumb/b/b5/DBeaver_logo.svg/2048px-DBeaver_logo.svg.png;" parent="1" vertex="1">
          <mxGeometry x="732" y="1250" width="65" height="65" as="geometry" />
        </mxCell>
        <mxCell id="C4OU6_arEyTyz7Xn0x7d-42" value="분산 서비스 추적&#xa;(Jaeger)" style="shape=image;verticalLabelPosition=bottom;labelBackgroundColor=default;verticalAlign=top;aspect=fixed;imageAspect=0;image=https://www.jaegertracing.io/img/jaeger-icon-color.png;" parent="1" vertex="1">
          <mxGeometry x="912" y="780.39" width="68.88" height="78.5" as="geometry" />
        </mxCell>
        <mxCell id="C4OU6_arEyTyz7Xn0x7d-43" value="서비스 메쉬 모니터링&#xa;(Kiali)" style="shape=image;verticalLabelPosition=bottom;labelBackgroundColor=default;verticalAlign=top;aspect=fixed;imageAspect=0;image=https://cdn-images-1.medium.com/max/600/1*YishSzZFrWdMIJS4JF6LZw@2x.png;clipPath=inset(0% 55.67% 0% 0.67%);" parent="1" vertex="1">
          <mxGeometry x="1032" y="789.6400000000001" width="87.81" height="67.03" as="geometry" />
        </mxCell>
        <mxCell id="1gMmMZh8i2bEVqMiJXfC-1" value="지식/진행관리&#xa;(Notion)" style="shape=image;verticalLabelPosition=bottom;labelBackgroundColor=default;verticalAlign=top;aspect=fixed;imageAspect=0;image=https://upload.wikimedia.org/wikipedia/commons/thumb/e/e9/Notion-logo.svg/1024px-Notion-logo.svg.png;" parent="1" vertex="1">
          <mxGeometry x="148" y="250" width="69.64" height="69.64" as="geometry" />
        </mxCell>
        <mxCell id="1gMmMZh8i2bEVqMiJXfC-2" value="아키텍쳐&#xa;(Drawio)" style="shape=image;verticalLabelPosition=bottom;labelBackgroundColor=default;verticalAlign=top;aspect=fixed;imageAspect=0;image=https://upload.wikimedia.org/wikipedia/commons/thumb/3/3e/Diagrams.net_Logo.svg/800px-Diagrams.net_Logo.svg.png;" parent="1" vertex="1">
          <mxGeometry x="148" y="365" width="70" height="70" as="geometry" />
        </mxCell>
        <mxCell id="htnhK65lFLZkcDakwt_--1" value="&lt;b&gt;인증인가&lt;/b&gt;" style="rounded=0;whiteSpace=wrap;html=1;fillColor=none;align=center;labelPosition=center;verticalLabelPosition=top;verticalAlign=bottom;spacing=2;noLabel=0;fontSize=15;strokeColor=#007FFF;" parent="1" vertex="1">
          <mxGeometry x="637" y="570" width="180.74" height="108.75" as="geometry" />
        </mxCell>
        <mxCell id="htnhK65lFLZkcDakwt_--2" value="로그인/권한(keycloak)" style="shape=image;verticalLabelPosition=bottom;labelBackgroundColor=default;verticalAlign=top;aspect=fixed;imageAspect=0;image=https://upload.wikimedia.org/wikipedia/commons/2/29/Keycloak_Logo.png;" parent="1" vertex="1">
          <mxGeometry x="689.3700000000001" y="573.5" width="76" height="76" as="geometry" />
        </mxCell>
        <mxCell id="2o2Ar8Pg5R-kG7Tq_Z3B-1" value="이미지저장소&#xa;(Harbor)" style="shape=image;verticalLabelPosition=bottom;labelBackgroundColor=default;verticalAlign=top;aspect=fixed;imageAspect=0;image=https://goharbor.io/img/logos/harbor-icon-color.png;" parent="1" vertex="1">
          <mxGeometry x="681.69" y="246.83999999999997" width="71.82" height="71.82" as="geometry" />
        </mxCell>
      </root>
    </mxGraphModel>
  </diagram>
</mxfile>
